<svg width="16" height="16" viewBox="0 0 17 16" fill="none" xmlns="http://www.w3.org/2000/svg">
<path fill-rule="evenodd" clip-rule="evenodd" d="M13.0351 0.194028C12.8572 0.304795 12.5549 0.55985 12.3632 0.760864L12.0148 1.12636L13.6879 2.78852L15.3609 4.45056L15.8957 3.89447C16.397 3.3734 16.4306 3.30335 16.4306 2.77949C16.4306 2.22168 16.4286 2.21835 15.4874 1.25754C14.9687 0.727988 14.4132 0.226581 14.2532 0.143318C13.8545 -0.0639276 13.4204 -0.0458782 13.0351 0.194028ZM6.62174 6.49143L1.93397 11.1645L3.60306 12.8306L5.27215 14.4967L9.98859 9.79682L14.7051 5.0969L13.0629 3.45763C12.1598 2.55602 11.3957 1.81836 11.3651 1.81836C11.3345 1.81836 9.19997 3.92122 6.62174 6.49143ZM11.7954 11.9711V13.0992H10.6636H9.53176V13.4215V13.7438H10.6636H11.7954V14.8719V16H12.1188H12.4422V14.8756V13.7511L13.601 13.7206L14.7598 13.6901L14.7939 13.3947L14.828 13.0992H13.6351H12.4422V11.9711V10.843H12.1188H11.7954V11.9711ZM0.786284 13.9318C0.571019 15.0398 0.411806 15.9649 0.432395 15.9875C0.48252 16.0425 4.47339 15.2759 4.55381 15.1956C4.63077 15.119 1.44017 11.9174 1.28688 11.9174C1.22684 11.9174 1.00155 12.824 0.786284 13.9318Z" fill="#FFFFFF"/>
</svg>
